<svg width="24" height="24" viewBox="0 0 24 24" fill="none" xmlns="http://www.w3.org/2000/svg">
<path d="M20.25 3.75H12.75V2.25C12.75 2.05109 12.671 1.86032 12.5303 1.71967C12.3897 1.57902 12.1989 1.5 12 1.5C11.8011 1.5 11.6103 1.57902 11.4697 1.71967C11.329 1.86032 11.25 2.05109 11.25 2.25V3.75H3.75C3.35218 3.75 2.97064 3.90804 2.68934 4.18934C2.40804 4.47064 2.25 4.85218 2.25 5.25V16.5C2.25 16.8978 2.40804 17.2794 2.68934 17.5607C2.97064 17.842 3.35218 18 3.75 18H7.44375L5.41875 20.5312C5.33066 20.6413 5.27535 20.7739 5.25917 20.9139C5.24299 21.0539 5.26658 21.1957 5.32726 21.3229C5.38793 21.4501 5.48322 21.5576 5.60221 21.6332C5.72119 21.7087 5.85906 21.7492 6 21.75C6.11195 21.7507 6.22258 21.7258 6.32335 21.677C6.42413 21.6282 6.51236 21.557 6.58125 21.4688L9.35625 18H14.6437L17.4188 21.4688C17.4876 21.557 17.5759 21.6282 17.6767 21.677C17.7774 21.7258 17.8881 21.7507 18 21.75C18.1409 21.7492 18.2788 21.7087 18.3978 21.6332C18.5168 21.5576 18.6121 21.4501 18.6727 21.3229C18.7334 21.1957 18.757 21.0539 18.7408 20.9139C18.7246 20.7739 18.6693 20.6413 18.5812 20.5312L16.5563 18H20.25C20.6478 18 21.0294 17.842 21.3107 17.5607C21.592 17.2794 21.75 16.8978 21.75 16.5V5.25C21.75 4.85218 21.592 4.47064 21.3107 4.18934C21.0294 3.90804 20.6478 3.75 20.25 3.75ZM9.75 13.5C9.75 13.6989 9.67098 13.8897 9.53033 14.0303C9.38968 14.171 9.19891 14.25 9 14.25C8.80109 14.25 8.61032 14.171 8.46967 14.0303C8.32902 13.8897 8.25 13.6989 8.25 13.5V11.25C8.25 11.0511 8.32902 10.8603 8.46967 10.7197C8.61032 10.579 8.80109 10.5 9 10.5C9.19891 10.5 9.38968 10.579 9.53033 10.7197C9.67098 10.8603 9.75 11.0511 9.75 11.25V13.5ZM12.75 13.5C12.75 13.6989 12.671 13.8897 12.5303 14.0303C12.3897 14.171 12.1989 14.25 12 14.25C11.8011 14.25 11.6103 14.171 11.4697 14.0303C11.329 13.8897 11.25 13.6989 11.25 13.5V9.75C11.25 9.55109 11.329 9.36032 11.4697 9.21967C11.6103 9.07902 11.8011 9 12 9C12.1989 9 12.3897 9.07902 12.5303 9.21967C12.671 9.36032 12.75 9.55109 12.75 9.75V13.5ZM15.75 13.5C15.75 13.6989 15.671 13.8897 15.5303 14.0303C15.3897 14.171 15.1989 14.25 15 14.25C14.8011 14.25 14.6103 14.171 14.4697 14.0303C14.329 13.8897 14.25 13.6989 14.25 13.5V8.25C14.25 8.05109 14.329 7.86032 14.4697 7.71967C14.6103 7.57902 14.8011 7.5 15 7.5C15.1989 7.5 15.3897 7.57902 15.5303 7.71967C15.671 7.86032 15.75 8.05109 15.75 8.25V13.5Z" fill="#9D9D9D"/>
</svg>
