<svg width="44" height="44" viewBox="0 0 44 44" fill="none" xmlns="http://www.w3.org/2000/svg">
<g clip-path="url(#clip0_729_77409)">
<path fill-rule="evenodd" clip-rule="evenodd" d="M34.3133 21.4471C34.5522 21.3086 34.8581 21.39 34.9966 21.6289L38.9325 28.418C39.071 28.6569 38.9897 28.9628 38.7508 29.1013C38.5119 29.2398 38.2059 29.1584 38.0674 28.9195L34.1315 22.1305C33.993 21.8916 34.0744 21.5856 34.3133 21.4471Z" fill="#9D9D9D"/>
<path fill-rule="evenodd" clip-rule="evenodd" d="M26.4163 25.1685C26.6882 25.1206 26.9475 25.3022 26.9954 25.5742L28.2157 32.5007C28.2637 32.7727 28.082 33.032 27.8101 33.0799C27.5381 33.1278 27.2788 32.9462 27.2309 32.6743L26.0106 25.7477C25.9627 25.4757 26.1443 25.2164 26.4163 25.1685Z" fill="#9D9D9D"/>
<path fill-rule="evenodd" clip-rule="evenodd" d="M17.5662 25.1513C17.8382 25.1991 18.0199 25.4583 17.9721 25.7303L16.7518 32.674C16.704 32.946 16.4448 33.1278 16.1728 33.08C15.9008 33.0322 15.7191 32.7729 15.7669 32.501L16.9872 25.5572C17.035 25.2852 17.2942 25.1035 17.5662 25.1513Z" fill="#9D9D9D"/>
<path fill-rule="evenodd" clip-rule="evenodd" d="M9.66852 21.4466C9.90772 21.5846 9.98978 21.8903 9.8518 22.1295L5.91586 28.953C5.77788 29.1922 5.47212 29.2742 5.23292 29.1362C4.99372 28.9983 4.91166 28.6925 5.04964 28.4533L8.98558 21.6299C9.12355 21.3907 9.42932 21.3086 9.66852 21.4466Z" fill="#9D9D9D"/>
<path fill-rule="evenodd" clip-rule="evenodd" d="M5.18585 17.6407C5.40067 17.4672 5.71548 17.5007 5.88899 17.7155C8.72125 21.2221 13.8858 25.625 22 25.625C30.1142 25.625 35.2788 21.2221 38.111 17.7155C38.2846 17.5007 38.5994 17.4672 38.8142 17.6407C39.029 17.8142 39.0625 18.129 38.889 18.3439C35.9463 21.9872 30.5234 26.625 22 26.625C13.4767 26.625 8.05378 21.9872 5.11105 18.3439C4.93754 18.129 4.97103 17.8142 5.18585 17.6407Z" fill="#9D9D9D"/>
</g>
<defs>
<clipPath id="clip0_729_77409">
<rect width="44" height="44" fill="white"/>
</clipPath>
</defs>
</svg>
