<svg width="24" height="24" viewBox="0 0 24 24" fill="none" xmlns="http://www.w3.org/2000/svg">
<path d="M4.25 4C3.01625 4 2 5.01625 2 6.25V17.75C2 18.9838 3.01625 20 4.25 20H19.75C20.9838 20 22 18.9838 22 17.75V8.75C22 7.51625 20.9838 6.5 19.75 6.5H12.0215L9.78613 4.6377C9.29203 4.22606 8.66958 4 8.02637 4H4.25ZM4.25 5.5H8.02637C8.31915 5.5 8.60128 5.60268 8.82617 5.79004L10.5781 7.25L8.82617 8.70996C8.60128 8.89732 8.31915 9 8.02637 9H3.5V6.25C3.5 5.82675 3.82675 5.5 4.25 5.5ZM12.0215 8H19.75C20.1732 8 20.5 8.32675 20.5 8.75V17.75C20.5 18.1732 20.1732 18.5 19.75 18.5H4.25C3.82675 18.5 3.5 18.1732 3.5 17.75V10.5H8.02637C8.66958 10.5 9.29203 10.2739 9.78613 9.8623L12.0215 8Z" fill="#6B7280"/>
<path d="M11.9963 11C11.9336 11.001 11.8739 11.0268 11.8302 11.0718C11.7865 11.1168 11.7625 11.1773 11.7634 11.24V13.7634H9.23995C9.2086 13.763 9.17747 13.7688 9.14838 13.7805C9.11929 13.7922 9.09281 13.8095 9.07049 13.8315C9.04816 13.8536 9.03043 13.8798 9.01833 13.9087C9.00623 13.9376 9 13.9687 9 14C9 14.0314 9.00623 14.0624 9.01833 14.0913C9.03043 14.1203 9.04816 14.1465 9.07049 14.1685C9.09281 14.1905 9.11929 14.2079 9.14838 14.2196C9.17747 14.2312 9.2086 14.237 9.23995 14.2366H11.7634V16.7601C11.763 16.7914 11.7688 16.8225 11.7805 16.8516C11.7922 16.8807 11.8095 16.9072 11.8315 16.9295C11.8535 16.9518 11.8798 16.9696 11.9087 16.9817C11.9376 16.9938 11.9686 17 12 17C12.0314 17 12.0624 16.9938 12.0913 16.9817C12.1202 16.9696 12.1465 16.9518 12.1685 16.9295C12.1905 16.9072 12.2078 16.8807 12.2195 16.8516C12.2312 16.8225 12.237 16.7914 12.2366 16.7601V14.2366H14.7601C14.7914 14.237 14.8225 14.2312 14.8516 14.2196C14.8807 14.2079 14.9072 14.1905 14.9295 14.1685C14.9518 14.1465 14.9696 14.1203 14.9817 14.0913C14.9938 14.0624 15 14.0314 15 14C15 13.9687 14.9938 13.9376 14.9817 13.9087C14.9696 13.8798 14.9518 13.8536 14.9295 13.8315C14.9072 13.8095 14.8807 13.7922 14.8516 13.7805C14.8225 13.7688 14.7914 13.763 14.7601 13.7634H12.2366V11.24C12.237 11.2083 12.2311 11.1769 12.2192 11.1476C12.2073 11.1182 12.1896 11.0916 12.1672 11.0692C12.1448 11.0468 12.1181 11.0292 12.0888 11.0173C12.0594 11.0054 12.028 10.9995 11.9963 11Z" fill="#6B7280" stroke="#6B7280"/>
</svg>
